PathFileType	4	(X/Y/Z)	RBDS002static.trc
DataRate	CameraRate	NumFrames	NumMarkers	Units	OrigDataRate	OrigDataStartFrame	OrigNumFrames
150.000000	150.000000	4	48	mm	150.000000	75	150
Frame#	Time	L.Ankle			L.Ankle.Medial			L.ASIS			L.GTR			L.Heel.Bottom			L.Heel.Lateral			L.Heel.Top			L.HF			L.Iliac.Crest			L.Knee			L.Knee.Medial			L.MT1			L.MT2			L.MT5			L.PSIS			L.Shank.Bottom.Lateral			L.Shank.Bottom.Medial			L.Shank.Top.Lateral			L.Shank.Top.Medial			L.Thigh.Bottom.Lateral			L.Thigh.Bottom.Medial			L.Thigh.Top.Lateral			L.Thigh.Top.Medial			L.TT			R.Ankle			R.Ankle.Medial			R.ASIS			R.GTR			R.Heel.Bottom			R.Heel.Lateral			R.Heel.Top			R.HF			R.Iliac.Crest			R.Knee			R.Knee.Medial			R.MT1			R.MT2			R.MT5			R.PSIS			R.Shank.Bottom.Lateral			R.Shank.Bottom.Medial			R.Shank.Top.Lateral			R.Shank.Top.Medial			R.Thigh.Bottom.Lateral			R.Thigh.Bottom.Medial			R.Thigh.Top.Lateral			R.Thigh.Top.Medial			R.TT			
		X1	Y1	Z1	X2	Y2	Z2	X3	Y3	Z3	X4	Y4	Z4	X5	Y5	Z5	X6	Y6	Z6	X7	Y7	Z7	X8	Y8	Z8	X9	Y9	Z9	X10	Y10	Z10	X11	Y11	Z11	X12	Y12	Z12	X13	Y13	Z13	X14	Y14	Z14	X15	Y15	Z15	X16	Y16	Z16	X17	Y17	Z17	X18	Y18	Z18	X19	Y19	Z19	X20	Y20	Z20	X21	Y21	Z21	X22	Y22	Z22	X23	Y23	Z23	X24	Y24	Z24	X25	Y25	Z25	X26	Y26	Z26	X27	Y27	Z27	X28	Y28	Z28	X29	Y29	Z29	X30	Y30	Z30	X31	Y31	Z31	X32	Y32	Z32	X33	Y33	Z33	X34	Y34	Z34	X35	Y35	Z35	X36	Y36	Z36	X37	Y37	Z37	X38	Y38	Z38	X39	Y39	Z39	X40	Y40	Z40	X41	Y41	Z41	X42	Y42	Z42	X43	Y43	Z43	X44	Y44	Z44	X45	Y45	Z45	X46	Y46	Z46	X47	Y47	Z47	X48	Y48	Z48	

76	0.5	713.1707763671875	106.3212890625	1030.567626953125	735.3826904296875	119.1186447143555	1112.09814453125	853.424560546875	1050.673706054688	1108.744018554688	775.1923217773438	953.8898315429688	1031.9677734375	637.3607177734375	44.15016937255859	1072.24169921875	670.4596557617188	55.16596221923828	1027.276733398438	648.842529296875	94.16075134277344	1071.406616210938	723.0891723632813	484.0091552734375	1008.05517578125	767.1395263671875	1129.633666992188	1051.937744140625	735.9383544921875	552.0449829101563	1011.87451171875	714.8518676757813	530.0557250976563	1140.639770507813	864.9784545898438	63.64347457885742	1121.72119140625	871.535400390625	71.25450134277344	1073.803955078125	838.7518310546875	47.48646926879883	1005.179138183594	665.695556640625	1096.318603515625	1167.290649414063	701.6900634765625	176.4175567626953	1020.307006835938	663.0061645507813	175.5753784179688	1054.344116210938	691.3259887695313	255.2158966064453	1004.586547851563	652.907958984375	259.2279968261719	1041.275268554688	725.5963745117188	649.0279541015625	1010.822265625	673.1956176757813	641.8766479492188	1061.7783203125	714.629150390625	758.8572998046875	1019.943176269531	668.0591430664063	752.1495361328125	1070.200073242188	782.2078857421875	462.8527221679688	1062.68701171875	709.9373779296875	104.9454803466797	1411.264038085938	732.9649047851563	121.244987487793	1327.316650390625	849.3540649414063	1049.9130859375	1326.92138671875	767.3952026367188	964.661865234375	1399.031860351563	632.5411376953125	44.00524139404297	1374.596557617188	658.04052734375	59.13426971435547	1412.333984375	644.7080688476563	94.37970733642578	1373.23193359375	734.016357421875	486.5865478515625	1422.861450195313	764.3818969726563	1132.846313476563	1374.409912109375	734.485107421875	558.7642211914063	1415.694458007813	722.0878295898438	535.8604125976563	1284.921020507813	862.3887939453125	66.22011566162109	1323.643920898438	865.8284912109375	74.78939819335938	1366.898193359375	838.3742065429688	56.99785232543945	1435.817749023438	664.314453125	1098.010375976563	1256.388793945313	697.33935546875	189.1316833496094	1423.58447265625	657.4733276367188	191.2578582763672	1386.352416992188	688.6041259765625	268.9288940429688	1435.57568359375	651.0894165039063	270.3631896972656	1396.2158203125	718.6197509765625	660.0693969726563	1418.058715820313	665.724365234375	657.6098022460938	1366.003784179688	710.3453979492188	770.6460571289063	1417.4228515625	661.1521606445313	767.7949829101563	1367.265380859375	789.1521606445313	475.6416320800781	1367.466430664063	
77	0.5066666666666667	713.1643676757813	106.323486328125	1030.564208984375	735.3806762695313	119.1197052001953	1112.089721679688	853.4189453125	1050.6748046875	1108.76220703125	775.1752319335938	953.8831787109375	1031.976196289063	637.3687744140625	44.15183639526367	1072.24365234375	670.4647216796875	55.17292404174805	1027.270385742188	648.836181640625	94.16055297851563	1071.41064453125	723.0934448242188	484.01025390625	1008.051574707031	767.1346435546875	1129.636108398438	1051.957275390625	735.9280395507813	552.0459594726563	1011.877380371094	714.8477783203125	530.0628051757813	1140.652587890625	864.9868774414063	63.65657424926758	1121.723388671875	871.5374145507813	71.26155090332031	1073.811645507813	838.7498779296875	47.48797988891602	1005.170532226563	665.693115234375	1096.323486328125	1167.29541015625	701.6857299804688	176.4145812988281	1020.305725097656	662.9986572265625	175.5647125244141	1054.350708007813	691.323974609375	255.2273406982422	1004.582458496094	652.9052124023438	259.2400207519531	1041.276977539063	725.5985107421875	649.0286865234375	1010.8212890625	673.1944580078125	641.8751831054688	1061.763671875	714.6154174804688	758.8513793945313	1019.945007324219	668.0557861328125	752.1466064453125	1070.204711914063	782.2097778320313	462.8562316894531	1062.69091796875	709.9339599609375	104.9417343139648	1411.27099609375	732.963623046875	121.251335144043	1327.30859375	849.3592529296875	1049.918701171875	1326.927001953125	767.3851928710938	964.6557006835938	1399.0283203125	632.542724609375	44.00208282470703	1374.59716796875	658.0281372070313	59.13584518432617	1412.338623046875	644.7073974609375	94.38666534423828	1373.23583984375	734.0101928710938	486.5831298828125	1422.865356445313	764.38427734375	1132.85595703125	1374.412109375	734.4539794921875	558.7469482421875	1415.59619140625	722.0703735351563	535.8759155273438	1284.919677734375	862.3973999023438	66.21714019775391	1323.64208984375	865.8231201171875	74.77840423583984	1366.8857421875	838.3677978515625	56.99838256835938	1435.81591796875	664.315185546875	1098.015869140625	1256.39306640625	697.3427734375	189.1328887939453	1423.586303710938	657.4713134765625	191.2546081542969	1386.3447265625	688.6026000976563	268.9320068359375	1435.580444335938	651.080810546875	270.3668518066406	1396.2236328125	718.6182250976563	660.0731201171875	1418.070434570313	665.7225341796875	657.6149291992188	1366.01416015625	710.3491821289063	770.645751953125	1417.4375	661.1486206054688	767.8115234375	1367.267333984375	789.134765625	475.6513366699219	1367.489868164063	
78	0.5133333333333334	713.1726684570313	106.3210678100586	1030.573852539063	735.375244140625	119.1046829223633	1112.090209960938	853.4169921875	1050.6787109375	1108.768920898438	775.1754760742188	953.892822265625	1031.978393554688	637.3690185546875	44.14999008178711	1072.2373046875	670.4557495117188	55.16820907592773	1027.274169921875	648.8369140625	94.16002655029297	1071.418090820313	723.0985107421875	484.0081176757813	1008.060974121094	767.1278686523438	1129.637817382813	1051.95703125	735.9403076171875	552.041259765625	1011.880126953125	714.8527221679688	530.05810546875	1140.6484375	864.9884033203125	63.64670944213867	1121.720092773438	871.5345458984375	71.26242828369141	1073.804321289063	838.7501220703125	47.48018264770508	1005.169555664063	665.68994140625	1096.327270507813	1167.298095703125	701.6904907226563	176.4202423095703	1020.300964355469	662.9984741210938	175.5687255859375	1054.345825195313	691.3290405273438	255.2180786132813	1004.586669921875	652.9072875976563	259.2361755371094	1041.27587890625	725.5877685546875	649.0213623046875	1010.8271484375	673.193603515625	641.880126953125	1061.769165039063	714.6146240234375	758.8523559570313	1019.954040527344	668.0592041015625	752.1495971679688	1070.213989257813	782.1925659179688	462.8528747558594	1062.697387695313	709.9358520507813	104.9477386474609	1411.259643554688	732.968994140625	121.2515106201172	1327.322143554688	849.3563232421875	1049.913452148438	1326.930908203125	767.3855590820313	964.673095703125	1399.04150390625	632.54443359375	44.00904846191406	1374.594482421875	658.0325317382813	59.13720321655273	1412.325073242188	644.71630859375	94.38301849365234	1373.2392578125	734.0140380859375	486.5841369628906	1422.861328125	764.3929443359375	1132.851684570313	1374.412109375	734.451171875	558.7369384765625	1415.59619140625	722.0819091796875	535.87548828125	1284.931396484375	862.39892578125	66.21615600585938	1323.644287109375	865.8277587890625	74.7987060546875	1366.902709960938	838.3665771484375	56.99467468261719	1435.815551757813	664.3138427734375	1098.020629882813	1256.396606445313	697.3377685546875	189.1328887939453	1423.588623046875	657.4730224609375	191.2550354003906	1386.35205078125	688.6054077148438	268.9244689941406	1435.587768554688	651.0852661132813	270.3651428222656	1396.23193359375	718.631591796875	660.0791625976563	1418.082153320313	665.728271484375	657.6121215820313	1366.01953125	710.3546142578125	770.6521606445313	1417.431274414063	661.156494140625	767.8047485351563	1367.26953125	789.13330078125	475.6488342285156	1367.48583984375	
79	0.52	713.1577758789063	106.3294525146484	1030.562622070313	735.376220703125	119.0971603393555	1112.096313476563	853.419189453125	1050.67919921875	1108.77392578125	775.1740112304688	953.8822021484375	1031.994873046875	637.364013671875	44.15757369995117	1072.248657226563	670.4547729492188	55.17419815063477	1027.267944335938	648.8421630859375	94.159912109375	1071.421508789063	723.1001586914063	484.0147705078125	1008.063049316406	767.1226196289063	1129.633178710938	1051.963134765625	735.933837890625	552.0482177734375	1011.883666992188	714.857421875	530.0404052734375	1140.64794921875	864.9876708984375	63.65634155273438	1121.728515625	871.5330200195313	71.26062774658203	1073.805053710938	838.7508544921875	47.49385070800781	1005.167785644531	665.689208984375	1096.321044921875	1167.304443359375	701.6912231445313	176.4216156005859	1020.310241699219	663.00830078125	175.5637969970703	1054.348022460938	691.3265380859375	255.2217712402344	1004.594055175781	652.90869140625	259.2393188476563	1041.278442382813	725.5881958007813	649.022216796875	1010.8310546875	673.1920776367188	641.8696899414063	1061.784790039063	714.6151733398438	758.85205078125	1019.962158203125	668.0526733398438	752.149169921875	1070.2216796875	782.1995849609375	462.8548278808594	1062.713745117188	709.9425659179688	104.9322128295898	1411.258666992188	732.9705200195313	121.2612609863281	1327.312744140625	849.3599243164063	1049.918701171875	1326.940063476563	767.383544921875	964.6636352539063	1399.039916992188	632.5452880859375	44.00822448730469	1374.590087890625	658.0333251953125	59.13785934448242	1412.344970703125	644.7122192382813	94.38990783691406	1373.250732421875	734.0022583007813	486.5875854492188	1422.873901367188	764.3923950195313	1132.854125976563	1374.423461914063	734.4837036132813	558.7608642578125	1415.7216796875	722.071533203125	535.8843383789063	1284.917846679688	862.3928833007813	66.22071075439453	1323.639526367188	865.8311157226563	74.7847900390625	1366.891479492188	838.3636474609375	56.99879455566406	1435.821899414063	664.30419921875	1098.022583007813	1256.406860351563	697.3402099609375	189.1325225830078	1423.586547851563	657.4769287109375	191.2614898681641	1386.355224609375	688.6073608398438	268.9295959472656	1435.589721679688	651.0907592773438	270.369873046875	1396.222778320313	718.6349487304688	660.07666015625	1418.085815429688	665.7318115234375	657.6157836914063	1366.026123046875	710.3642578125	770.6500854492188	1417.42919921875	661.1624755859375	767.8070068359375	1367.282836914063	789.130126953125	475.6510009765625	1367.491455078125	
